<mxfile host="65bd71144e">
    <diagram id="jXz-vzdqo-b94pb40Mnk" name="Step 1_Define the purpose">
        <mxGraphModel dx="820" dy="567" grid="1" gridSize="10" guides="1" tooltips="1" connect="1" arrows="1" fold="1" page="1" pageScale="1" pageWidth="827" pageHeight="1169" math="0" shadow="0">
            <root>
                <mxCell id="nirytq_ue4nJtfHyfdGq-0"/>
                <mxCell id="nirytq_ue4nJtfHyfdGq-1" parent="nirytq_ue4nJtfHyfdGq-0"/>
                <mxCell id="_NB82IQ6cY1DiW0OCXUs-0" value="" style="shape=actor;whiteSpace=wrap;html=1;" parent="nirytq_ue4nJtfHyfdGq-1" vertex="1">
                    <mxGeometry x="350" y="340" width="120" height="170" as="geometry"/>
                </mxCell>
                <mxCell id="_NB82IQ6cY1DiW0OCXUs-1" value="product" style="ellipse;shape=cloud;whiteSpace=wrap;html=1;" parent="nirytq_ue4nJtfHyfdGq-1" vertex="1">
                    <mxGeometry x="160" y="320" width="120" height="80" as="geometry"/>
                </mxCell>
                <mxCell id="_NB82IQ6cY1DiW0OCXUs-2" value="customer" style="ellipse;shape=cloud;whiteSpace=wrap;html=1;" parent="nirytq_ue4nJtfHyfdGq-1" vertex="1">
                    <mxGeometry x="580" y="335" width="120" height="80" as="geometry"/>
                </mxCell>
                <mxCell id="_NB82IQ6cY1DiW0OCXUs-3" value="transaction" style="ellipse;shape=cloud;whiteSpace=wrap;html=1;" parent="nirytq_ue4nJtfHyfdGq-1" vertex="1">
                    <mxGeometry x="470" y="220" width="120" height="80" as="geometry"/>
                </mxCell>
                <mxCell id="_NB82IQ6cY1DiW0OCXUs-4" value="set" style="ellipse;shape=cloud;whiteSpace=wrap;html=1;" parent="nirytq_ue4nJtfHyfdGq-1" vertex="1">
                    <mxGeometry x="280" y="220" width="120" height="80" as="geometry"/>
                </mxCell>
            </root>
        </mxGraphModel>
    </diagram>
    <diagram id="zYmbBFuIOlqK6AIwoc5G" name="Step 2_The ERM">
        <mxGraphModel dx="820" dy="567" grid="1" gridSize="10" guides="1" tooltips="1" connect="1" arrows="1" fold="1" page="1" pageScale="1" pageWidth="827" pageHeight="1169" math="0" shadow="0">
            <root>
                <mxCell id="0"/>
                <mxCell id="1" parent="0"/>
                <mxCell id="WfDdYutlsM7AOkbjWXz2-21" style="edgeStyle=none;html=1;exitX=1;exitY=0.5;exitDx=0;exitDy=0;startArrow=ERmany;startFill=0;endArrow=ERmany;endFill=0;" parent="1" source="2" target="15" edge="1">
                    <mxGeometry relative="1" as="geometry"/>
                </mxCell>
                <mxCell id="WfDdYutlsM7AOkbjWXz2-22" style="edgeStyle=none;html=1;exitX=0.5;exitY=1;exitDx=0;exitDy=0;startArrow=ERmany;startFill=0;endArrow=ERmany;endFill=0;" parent="1" source="2" target="10" edge="1">
                    <mxGeometry relative="1" as="geometry"/>
                </mxCell>
                <mxCell id="2" value="product" style="rounded=0;whiteSpace=wrap;html=1;" parent="1" vertex="1">
                    <mxGeometry x="300" y="100" width="120" height="60" as="geometry"/>
                </mxCell>
                <mxCell id="WfDdYutlsM7AOkbjWXz2-30" style="edgeStyle=none;html=1;exitX=1;exitY=0.25;exitDx=0;exitDy=0;entryX=0;entryY=0.5;entryDx=0;entryDy=0;startArrow=ERone;startFill=0;endArrow=ERone;endFill=0;" parent="1" source="3" target="5" edge="1">
                    <mxGeometry relative="1" as="geometry"/>
                </mxCell>
                <mxCell id="WfDdYutlsM7AOkbjWXz2-31" style="edgeStyle=none;html=1;exitX=1;exitY=0.75;exitDx=0;exitDy=0;entryX=0.003;entryY=0.385;entryDx=0;entryDy=0;entryPerimeter=0;startArrow=ERone;startFill=0;endArrow=ERone;endFill=0;" parent="1" source="3" target="8" edge="1">
                    <mxGeometry relative="1" as="geometry"/>
                </mxCell>
                <mxCell id="3" value="customer" style="rounded=0;whiteSpace=wrap;html=1;" parent="1" vertex="1">
                    <mxGeometry x="300" y="555" width="120" height="60" as="geometry"/>
                </mxCell>
                <mxCell id="5" value="email" style="ellipse;whiteSpace=wrap;html=1;" parent="1" vertex="1">
                    <mxGeometry x="500" y="515" width="120" height="80" as="geometry"/>
                </mxCell>
                <mxCell id="WfDdYutlsM7AOkbjWXz2-18" style="edgeStyle=none;html=1;exitX=1;exitY=0.5;exitDx=0;exitDy=0;entryX=0;entryY=0;entryDx=0;entryDy=0;endArrow=ERmany;endFill=0;startArrow=ERmany;startFill=0;" parent="1" source="6" target="3" edge="1">
                    <mxGeometry relative="1" as="geometry"/>
                </mxCell>
                <mxCell id="6" value="fName" style="ellipse;whiteSpace=wrap;html=1;" parent="1" vertex="1">
                    <mxGeometry x="110" y="495" width="120" height="80" as="geometry"/>
                </mxCell>
                <mxCell id="WfDdYutlsM7AOkbjWXz2-19" style="edgeStyle=none;html=1;exitX=1;exitY=0.5;exitDx=0;exitDy=0;entryX=0;entryY=0.75;entryDx=0;entryDy=0;startArrow=ERmany;startFill=0;endArrow=ERmany;endFill=0;" parent="1" source="7" target="3" edge="1">
                    <mxGeometry relative="1" as="geometry"/>
                </mxCell>
                <mxCell id="7" value="lName" style="ellipse;whiteSpace=wrap;html=1;" parent="1" vertex="1">
                    <mxGeometry x="110" y="575" width="120" height="80" as="geometry"/>
                </mxCell>
                <mxCell id="8" value="password" style="ellipse;whiteSpace=wrap;html=1;" parent="1" vertex="1">
                    <mxGeometry x="500" y="595" width="120" height="80" as="geometry"/>
                </mxCell>
                <mxCell id="WfDdYutlsM7AOkbjWXz2-28" style="edgeStyle=none;html=1;exitX=1;exitY=0.5;exitDx=0;exitDy=0;entryX=0;entryY=1;entryDx=0;entryDy=0;startArrow=ERone;startFill=0;endArrow=ERone;endFill=0;" parent="1" source="9" target="2" edge="1">
                    <mxGeometry relative="1" as="geometry"/>
                </mxCell>
                <mxCell id="9" value="set" style="ellipse;whiteSpace=wrap;html=1;" parent="1" vertex="1">
                    <mxGeometry x="120" y="160" width="120" height="80" as="geometry"/>
                </mxCell>
                <mxCell id="WfDdYutlsM7AOkbjWXz2-20" style="edgeStyle=none;html=1;exitX=1;exitY=0.5;exitDx=0;exitDy=0;entryX=0;entryY=0.5;entryDx=0;entryDy=0;startArrow=ERmany;startFill=0;endArrow=ERmany;endFill=0;" parent="1" source="10" target="JAKgWlugo3kC6Hhdtx-b-18" edge="1">
                    <mxGeometry relative="1" as="geometry"/>
                </mxCell>
                <mxCell id="10" value="transaction" style="rhombus;whiteSpace=wrap;html=1;" parent="1" vertex="1">
                    <mxGeometry x="320" y="320" width="80" height="80" as="geometry"/>
                </mxCell>
                <mxCell id="WfDdYutlsM7AOkbjWXz2-27" style="edgeStyle=none;html=1;exitX=1;exitY=0.5;exitDx=0;exitDy=0;entryX=0.017;entryY=0.39;entryDx=0;entryDy=0;entryPerimeter=0;startArrow=ERone;startFill=0;endArrow=ERone;endFill=0;" parent="1" source="12" target="2" edge="1">
                    <mxGeometry relative="1" as="geometry"/>
                </mxCell>
                <mxCell id="12" value="catalog number" style="ellipse;whiteSpace=wrap;html=1;" parent="1" vertex="1">
                    <mxGeometry x="120" y="80" width="120" height="80" as="geometry"/>
                </mxCell>
                <mxCell id="WfDdYutlsM7AOkbjWXz2-23" style="edgeStyle=none;html=1;exitX=0.5;exitY=1;exitDx=0;exitDy=0;entryX=0.75;entryY=0;entryDx=0;entryDy=0;startArrow=ERmany;startFill=0;endArrow=ERmany;endFill=0;" parent="1" source="13" target="2" edge="1">
                    <mxGeometry relative="1" as="geometry"/>
                </mxCell>
                <mxCell id="13" value="start price" style="ellipse;whiteSpace=wrap;html=1;" parent="1" vertex="1">
                    <mxGeometry x="360" width="120" height="80" as="geometry"/>
                </mxCell>
                <mxCell id="WfDdYutlsM7AOkbjWXz2-24" style="edgeStyle=none;html=1;exitX=0;exitY=1;exitDx=0;exitDy=0;entryX=1;entryY=0;entryDx=0;entryDy=0;startArrow=ERone;startFill=0;endArrow=ERone;endFill=0;" parent="1" source="14" target="2" edge="1">
                    <mxGeometry relative="1" as="geometry"/>
                </mxCell>
                <mxCell id="14" value="highest bid" style="ellipse;whiteSpace=wrap;html=1;" parent="1" vertex="1">
                    <mxGeometry x="480" width="120" height="80" as="geometry"/>
                </mxCell>
                <mxCell id="15" value="remaining time" style="ellipse;whiteSpace=wrap;html=1;" parent="1" vertex="1">
                    <mxGeometry x="480" y="80" width="120" height="80" as="geometry"/>
                </mxCell>
                <mxCell id="WfDdYutlsM7AOkbjWXz2-26" style="edgeStyle=none;html=1;exitX=1;exitY=1;exitDx=0;exitDy=0;entryX=0;entryY=0;entryDx=0;entryDy=0;startArrow=ERone;startFill=0;endArrow=ERone;endFill=0;" parent="1" source="17" target="2" edge="1">
                    <mxGeometry relative="1" as="geometry"/>
                </mxCell>
                <mxCell id="17" value="name" style="ellipse;whiteSpace=wrap;html=1;" parent="1" vertex="1">
                    <mxGeometry x="120" width="120" height="80" as="geometry"/>
                </mxCell>
                <mxCell id="WfDdYutlsM7AOkbjWXz2-25" style="edgeStyle=none;html=1;exitX=0.5;exitY=1;exitDx=0;exitDy=0;entryX=0.25;entryY=0;entryDx=0;entryDy=0;startArrow=ERone;startFill=0;endArrow=ERone;endFill=0;" parent="1" source="18" target="2" edge="1">
                    <mxGeometry relative="1" as="geometry"/>
                </mxCell>
                <mxCell id="18" value="description" style="ellipse;whiteSpace=wrap;html=1;" parent="1" vertex="1">
                    <mxGeometry x="240" width="120" height="80" as="geometry"/>
                </mxCell>
                <mxCell id="JAKgWlugo3kC6Hhdtx-b-18" value="date" style="ellipse;whiteSpace=wrap;html=1;" parent="1" vertex="1">
                    <mxGeometry x="490" y="320" width="120" height="80" as="geometry"/>
                </mxCell>
                <mxCell id="WfDdYutlsM7AOkbjWXz2-29" style="edgeStyle=none;html=1;exitX=1;exitY=0.5;exitDx=0;exitDy=0;entryX=0;entryY=0.5;entryDx=0;entryDy=0;startArrow=ERone;startFill=0;endArrow=ERone;endFill=0;" parent="1" source="JAKgWlugo3kC6Hhdtx-b-19" target="10" edge="1">
                    <mxGeometry relative="1" as="geometry"/>
                </mxCell>
                <mxCell id="JAKgWlugo3kC6Hhdtx-b-19" value="transaction_id" style="ellipse;whiteSpace=wrap;html=1;" parent="1" vertex="1">
                    <mxGeometry x="110" y="320" width="120" height="80" as="geometry"/>
                </mxCell>
                <mxCell id="WfDdYutlsM7AOkbjWXz2-32" style="edgeStyle=none;html=1;exitX=1;exitY=0;exitDx=0;exitDy=0;entryX=0.25;entryY=1;entryDx=0;entryDy=0;startArrow=ERone;startFill=0;endArrow=ERone;endFill=0;" parent="1" source="JAKgWlugo3kC6Hhdtx-b-20" target="3" edge="1">
                    <mxGeometry relative="1" as="geometry"/>
                </mxCell>
                <mxCell id="JAKgWlugo3kC6Hhdtx-b-20" value="customer_id" style="ellipse;whiteSpace=wrap;html=1;" parent="1" vertex="1">
                    <mxGeometry x="170" y="660" width="120" height="80" as="geometry"/>
                </mxCell>
                <mxCell id="WfDdYutlsM7AOkbjWXz2-33" style="edgeStyle=none;html=1;exitX=0.5;exitY=1;exitDx=0;exitDy=0;startArrow=ERmany;startFill=0;endArrow=ERmany;endFill=0;" parent="1" edge="1">
                    <mxGeometry relative="1" as="geometry">
                        <mxPoint x="359.5" y="400" as="sourcePoint"/>
                        <mxPoint x="359.5" y="560" as="targetPoint"/>
                    </mxGeometry>
                </mxCell>
            </root>
        </mxGraphModel>
    </diagram>
    <diagram id="Xvj_9jHBKqaZcII52IWE" name="Step 3_UML">
        <mxGraphModel dx="820" dy="567" grid="1" gridSize="10" guides="1" tooltips="1" connect="1" arrows="1" fold="1" page="1" pageScale="1" pageWidth="827" pageHeight="1169" math="0" shadow="0">
            <root>
                <mxCell id="K4ox0ZS5v6BuJCqkUJ5z-0"/>
                <mxCell id="K4ox0ZS5v6BuJCqkUJ5z-1" parent="K4ox0ZS5v6BuJCqkUJ5z-0"/>
                <mxCell id="ihvt2og2E5Tj_Q-nilGA-0" value="product" style="swimlane;fontStyle=0;childLayout=stackLayout;horizontal=1;startSize=30;horizontalStack=0;resizeParent=1;resizeParentMax=0;resizeLast=0;collapsible=1;marginBottom=0;" parent="K4ox0ZS5v6BuJCqkUJ5z-1" vertex="1">
                    <mxGeometry x="220" y="55" width="130" height="300" as="geometry"/>
                </mxCell>
                <mxCell id="ihvt2og2E5Tj_Q-nilGA-1" value="lName: string" style="text;strokeColor=none;fillColor=none;align=left;verticalAlign=middle;spacingLeft=4;spacingRight=4;overflow=hidden;points=[[0,0.5],[1,0.5]];portConstraint=eastwest;rotatable=0;" parent="ihvt2og2E5Tj_Q-nilGA-0" vertex="1">
                    <mxGeometry y="30" width="130" height="30" as="geometry"/>
                </mxCell>
                <mxCell id="8oDsm6ZlISZKC_hXa9Hv-0" value="description: string" style="text;strokeColor=none;fillColor=none;align=left;verticalAlign=middle;spacingLeft=4;spacingRight=4;overflow=hidden;points=[[0,0.5],[1,0.5]];portConstraint=eastwest;rotatable=0;" parent="ihvt2og2E5Tj_Q-nilGA-0" vertex="1">
                    <mxGeometry y="60" width="130" height="30" as="geometry"/>
                </mxCell>
                <mxCell id="ihvt2og2E5Tj_Q-nilGA-2" value="photo: string" style="text;strokeColor=none;fillColor=none;align=left;verticalAlign=middle;spacingLeft=4;spacingRight=4;overflow=hidden;points=[[0,0.5],[1,0.5]];portConstraint=eastwest;rotatable=0;" parent="ihvt2og2E5Tj_Q-nilGA-0" vertex="1">
                    <mxGeometry y="90" width="130" height="30" as="geometry"/>
                </mxCell>
                <mxCell id="ihvt2og2E5Tj_Q-nilGA-3" value="remaining time: time" style="text;strokeColor=none;fillColor=none;align=left;verticalAlign=middle;spacingLeft=4;spacingRight=4;overflow=hidden;points=[[0,0.5],[1,0.5]];portConstraint=eastwest;rotatable=0;" parent="ihvt2og2E5Tj_Q-nilGA-0" vertex="1">
                    <mxGeometry y="120" width="130" height="30" as="geometry"/>
                </mxCell>
                <mxCell id="ihvt2og2E5Tj_Q-nilGA-5" value="start price: int" style="text;strokeColor=none;fillColor=none;align=left;verticalAlign=middle;spacingLeft=4;spacingRight=4;overflow=hidden;points=[[0,0.5],[1,0.5]];portConstraint=eastwest;rotatable=0;" parent="ihvt2og2E5Tj_Q-nilGA-0" vertex="1">
                    <mxGeometry y="150" width="130" height="30" as="geometry"/>
                </mxCell>
                <mxCell id="ihvt2og2E5Tj_Q-nilGA-4" value="higest bid: int" style="text;strokeColor=none;fillColor=none;align=left;verticalAlign=middle;spacingLeft=4;spacingRight=4;overflow=hidden;points=[[0,0.5],[1,0.5]];portConstraint=eastwest;rotatable=0;" parent="ihvt2og2E5Tj_Q-nilGA-0" vertex="1">
                    <mxGeometry y="180" width="130" height="30" as="geometry"/>
                </mxCell>
                <mxCell id="CLE6n5qO8nIWa3VFG4tP-0" value="location: string" style="text;strokeColor=none;fillColor=none;align=left;verticalAlign=middle;spacingLeft=4;spacingRight=4;overflow=hidden;points=[[0,0.5],[1,0.5]];portConstraint=eastwest;rotatable=0;" parent="ihvt2og2E5Tj_Q-nilGA-0" vertex="1">
                    <mxGeometry y="210" width="130" height="30" as="geometry"/>
                </mxCell>
                <mxCell id="ihvt2og2E5Tj_Q-nilGA-6" value="product_id: int" style="text;strokeColor=none;fillColor=none;align=left;verticalAlign=middle;spacingLeft=4;spacingRight=4;overflow=hidden;points=[[0,0.5],[1,0.5]];portConstraint=eastwest;rotatable=0;" parent="ihvt2og2E5Tj_Q-nilGA-0" vertex="1">
                    <mxGeometry y="240" width="130" height="30" as="geometry"/>
                </mxCell>
                <mxCell id="ihvt2og2E5Tj_Q-nilGA-7" value="fk_transaction_id: int" style="text;strokeColor=none;fillColor=none;align=left;verticalAlign=middle;spacingLeft=4;spacingRight=4;overflow=hidden;points=[[0,0.5],[1,0.5]];portConstraint=eastwest;rotatable=0;" parent="ihvt2og2E5Tj_Q-nilGA-0" vertex="1">
                    <mxGeometry y="270" width="130" height="30" as="geometry"/>
                </mxCell>
                <mxCell id="ihvt2og2E5Tj_Q-nilGA-8" value="customer" style="swimlane;fontStyle=0;childLayout=stackLayout;horizontal=1;startSize=30;horizontalStack=0;resizeParent=1;resizeParentMax=0;resizeLast=0;collapsible=1;marginBottom=0;" parent="K4ox0ZS5v6BuJCqkUJ5z-1" vertex="1">
                    <mxGeometry x="600" y="55" width="117" height="300" as="geometry"/>
                </mxCell>
                <mxCell id="ihvt2og2E5Tj_Q-nilGA-9" value="lName: string" style="text;strokeColor=none;fillColor=none;align=left;verticalAlign=middle;spacingLeft=4;spacingRight=4;overflow=hidden;points=[[0,0.5],[1,0.5]];portConstraint=eastwest;rotatable=0;" parent="ihvt2og2E5Tj_Q-nilGA-8" vertex="1">
                    <mxGeometry y="30" width="117" height="30" as="geometry"/>
                </mxCell>
                <mxCell id="ihvt2og2E5Tj_Q-nilGA-10" value="fName: string" style="text;strokeColor=none;fillColor=none;align=left;verticalAlign=middle;spacingLeft=4;spacingRight=4;overflow=hidden;points=[[0,0.5],[1,0.5]];portConstraint=eastwest;rotatable=0;" parent="ihvt2og2E5Tj_Q-nilGA-8" vertex="1">
                    <mxGeometry y="60" width="117" height="30" as="geometry"/>
                </mxCell>
                <mxCell id="ihvt2og2E5Tj_Q-nilGA-12" value="age: int" style="text;strokeColor=none;fillColor=none;align=left;verticalAlign=middle;spacingLeft=4;spacingRight=4;overflow=hidden;points=[[0,0.5],[1,0.5]];portConstraint=eastwest;rotatable=0;" parent="ihvt2og2E5Tj_Q-nilGA-8" vertex="1">
                    <mxGeometry y="90" width="117" height="30" as="geometry"/>
                </mxCell>
                <mxCell id="ihvt2og2E5Tj_Q-nilGA-13" value="gender: string" style="text;strokeColor=none;fillColor=none;align=left;verticalAlign=middle;spacingLeft=4;spacingRight=4;overflow=hidden;points=[[0,0.5],[1,0.5]];portConstraint=eastwest;rotatable=0;" parent="ihvt2og2E5Tj_Q-nilGA-8" vertex="1">
                    <mxGeometry y="120" width="117" height="30" as="geometry"/>
                </mxCell>
                <mxCell id="ihvt2og2E5Tj_Q-nilGA-14" value="address: string" style="text;strokeColor=none;fillColor=none;align=left;verticalAlign=middle;spacingLeft=4;spacingRight=4;overflow=hidden;points=[[0,0.5],[1,0.5]];portConstraint=eastwest;rotatable=0;" parent="ihvt2og2E5Tj_Q-nilGA-8" vertex="1">
                    <mxGeometry y="150" width="117" height="30" as="geometry"/>
                </mxCell>
                <mxCell id="ihvt2og2E5Tj_Q-nilGA-15" value="ZIP: int" style="text;strokeColor=none;fillColor=none;align=left;verticalAlign=middle;spacingLeft=4;spacingRight=4;overflow=hidden;points=[[0,0.5],[1,0.5]];portConstraint=eastwest;rotatable=0;" parent="ihvt2og2E5Tj_Q-nilGA-8" vertex="1">
                    <mxGeometry y="180" width="117" height="30" as="geometry"/>
                </mxCell>
                <mxCell id="wFK5Kzd3cFSwiLDH5pGj-0" value="email: string" style="text;strokeColor=none;fillColor=none;align=left;verticalAlign=middle;spacingLeft=4;spacingRight=4;overflow=hidden;points=[[0,0.5],[1,0.5]];portConstraint=eastwest;rotatable=0;" parent="ihvt2og2E5Tj_Q-nilGA-8" vertex="1">
                    <mxGeometry y="210" width="117" height="30" as="geometry"/>
                </mxCell>
                <mxCell id="wFK5Kzd3cFSwiLDH5pGj-1" value="password: string" style="text;strokeColor=none;fillColor=none;align=left;verticalAlign=middle;spacingLeft=4;spacingRight=4;overflow=hidden;points=[[0,0.5],[1,0.5]];portConstraint=eastwest;rotatable=0;" parent="ihvt2og2E5Tj_Q-nilGA-8" vertex="1">
                    <mxGeometry y="240" width="117" height="30" as="geometry"/>
                </mxCell>
                <mxCell id="ihvt2og2E5Tj_Q-nilGA-17" value="customer_id: int" style="text;strokeColor=none;fillColor=none;align=left;verticalAlign=middle;spacingLeft=4;spacingRight=4;overflow=hidden;points=[[0,0.5],[1,0.5]];portConstraint=eastwest;rotatable=0;" parent="ihvt2og2E5Tj_Q-nilGA-8" vertex="1">
                    <mxGeometry y="270" width="117" height="30" as="geometry"/>
                </mxCell>
                <mxCell id="ihvt2og2E5Tj_Q-nilGA-19" value="transaction" style="swimlane;fontStyle=0;childLayout=stackLayout;horizontal=1;startSize=30;horizontalStack=0;resizeParent=1;resizeParentMax=0;resizeLast=0;collapsible=1;marginBottom=0;" parent="K4ox0ZS5v6BuJCqkUJ5z-1" vertex="1">
                    <mxGeometry x="400" y="55" width="140" height="120" as="geometry"/>
                </mxCell>
                <mxCell id="ihvt2og2E5Tj_Q-nilGA-20" value="date: date" style="text;strokeColor=none;fillColor=none;align=left;verticalAlign=middle;spacingLeft=4;spacingRight=4;overflow=hidden;points=[[0,0.5],[1,0.5]];portConstraint=eastwest;rotatable=0;" parent="ihvt2og2E5Tj_Q-nilGA-19" vertex="1">
                    <mxGeometry y="30" width="140" height="30" as="geometry"/>
                </mxCell>
                <mxCell id="ihvt2og2E5Tj_Q-nilGA-22" value="doctor: string" style="text;strokeColor=none;fillColor=none;align=left;verticalAlign=middle;spacingLeft=4;spacingRight=4;overflow=hidden;points=[[0,0.5],[1,0.5]];portConstraint=eastwest;rotatable=0;" parent="ihvt2og2E5Tj_Q-nilGA-19" vertex="1">
                    <mxGeometry y="60" width="140" height="30" as="geometry"/>
                </mxCell>
                <mxCell id="ihvt2og2E5Tj_Q-nilGA-23" value="transaction_id: int" style="text;strokeColor=none;fillColor=none;align=left;verticalAlign=middle;spacingLeft=4;spacingRight=4;overflow=hidden;points=[[0,0.5],[1,0.5]];portConstraint=eastwest;rotatable=0;" parent="ihvt2og2E5Tj_Q-nilGA-19" vertex="1">
                    <mxGeometry y="90" width="140" height="30" as="geometry"/>
                </mxCell>
                <mxCell id="ihvt2og2E5Tj_Q-nilGA-24" value="set" style="swimlane;fontStyle=0;childLayout=stackLayout;horizontal=1;startSize=30;horizontalStack=0;resizeParent=1;resizeParentMax=0;resizeLast=0;collapsible=1;marginBottom=0;" parent="K4ox0ZS5v6BuJCqkUJ5z-1" vertex="1">
                    <mxGeometry x="10" y="55" width="130" height="210" as="geometry"/>
                </mxCell>
                <mxCell id="ihvt2og2E5Tj_Q-nilGA-25" value="lName: string" style="text;strokeColor=none;fillColor=none;align=left;verticalAlign=middle;spacingLeft=4;spacingRight=4;overflow=hidden;points=[[0,0.5],[1,0.5]];portConstraint=eastwest;rotatable=0;" parent="ihvt2og2E5Tj_Q-nilGA-24" vertex="1">
                    <mxGeometry y="30" width="130" height="30" as="geometry"/>
                </mxCell>
                <mxCell id="ihvt2og2E5Tj_Q-nilGA-26" value="catalog nummer: int" style="text;strokeColor=none;fillColor=none;align=left;verticalAlign=middle;spacingLeft=4;spacingRight=4;overflow=hidden;points=[[0,0.5],[1,0.5]];portConstraint=eastwest;rotatable=0;" parent="ihvt2og2E5Tj_Q-nilGA-24" vertex="1">
                    <mxGeometry y="60" width="130" height="30" as="geometry"/>
                </mxCell>
                <mxCell id="ihvt2og2E5Tj_Q-nilGA-27" value="nurse in charge: string" style="text;strokeColor=none;fillColor=none;align=left;verticalAlign=middle;spacingLeft=4;spacingRight=4;overflow=hidden;points=[[0,0.5],[1,0.5]];portConstraint=eastwest;rotatable=0;" parent="ihvt2og2E5Tj_Q-nilGA-24" vertex="1">
                    <mxGeometry y="90" width="130" height="30" as="geometry"/>
                </mxCell>
                <mxCell id="ihvt2og2E5Tj_Q-nilGA-28" value="doctor in charge: string" style="text;strokeColor=none;fillColor=none;align=left;verticalAlign=middle;spacingLeft=4;spacingRight=4;overflow=hidden;points=[[0,0.5],[1,0.5]];portConstraint=eastwest;rotatable=0;" parent="ihvt2og2E5Tj_Q-nilGA-24" vertex="1">
                    <mxGeometry y="120" width="130" height="30" as="geometry"/>
                </mxCell>
                <mxCell id="ihvt2og2E5Tj_Q-nilGA-29" value="rooms: int" style="text;strokeColor=none;fillColor=none;align=left;verticalAlign=middle;spacingLeft=4;spacingRight=4;overflow=hidden;points=[[0,0.5],[1,0.5]];portConstraint=eastwest;rotatable=0;" parent="ihvt2og2E5Tj_Q-nilGA-24" vertex="1">
                    <mxGeometry y="150" width="130" height="30" as="geometry"/>
                </mxCell>
                <mxCell id="ihvt2og2E5Tj_Q-nilGA-30" value="set_id: int" style="text;strokeColor=none;fillColor=none;align=left;verticalAlign=middle;spacingLeft=4;spacingRight=4;overflow=hidden;points=[[0,0.5],[1,0.5]];portConstraint=eastwest;rotatable=0;" parent="ihvt2og2E5Tj_Q-nilGA-24" vertex="1">
                    <mxGeometry y="180" width="130" height="30" as="geometry"/>
                </mxCell>
                <mxCell id="ihvt2og2E5Tj_Q-nilGA-31" style="edgeStyle=none;html=1;exitX=1;exitY=0.5;exitDx=0;exitDy=0;entryX=0;entryY=0.5;entryDx=0;entryDy=0;startArrow=ERmany;startFill=0;endArrow=ERmany;endFill=0;" parent="K4ox0ZS5v6BuJCqkUJ5z-1" source="ihvt2og2E5Tj_Q-nilGA-25" target="ihvt2og2E5Tj_Q-nilGA-1" edge="1">
                    <mxGeometry relative="1" as="geometry"/>
                </mxCell>
                <mxCell id="ihvt2og2E5Tj_Q-nilGA-32" style="edgeStyle=none;html=1;exitX=1;exitY=0.5;exitDx=0;exitDy=0;entryX=0;entryY=0.5;entryDx=0;entryDy=0;startArrow=ERmany;startFill=0;endArrow=ERmany;endFill=0;" parent="K4ox0ZS5v6BuJCqkUJ5z-1" source="ihvt2og2E5Tj_Q-nilGA-1" target="ihvt2og2E5Tj_Q-nilGA-20" edge="1">
                    <mxGeometry relative="1" as="geometry"/>
                </mxCell>
                <mxCell id="ihvt2og2E5Tj_Q-nilGA-33" style="edgeStyle=none;html=1;exitX=1;exitY=0.5;exitDx=0;exitDy=0;entryX=0;entryY=0.5;entryDx=0;entryDy=0;startArrow=ERmany;startFill=0;endArrow=ERmany;endFill=0;" parent="K4ox0ZS5v6BuJCqkUJ5z-1" source="ihvt2og2E5Tj_Q-nilGA-20" target="ihvt2og2E5Tj_Q-nilGA-9" edge="1">
                    <mxGeometry relative="1" as="geometry"/>
                </mxCell>
            </root>
        </mxGraphModel>
    </diagram>
    <diagram id="uGuc9Y0AqGTa8b9nX0rT" name="Step 4_Norm">
        <mxGraphModel dx="820" dy="567" grid="1" gridSize="10" guides="1" tooltips="1" connect="1" arrows="1" fold="1" page="1" pageScale="1" pageWidth="827" pageHeight="1169" math="0" shadow="0">
            <root>
                <mxCell id="vV-XLHRuFElExbyaIEd4-0"/>
                <mxCell id="vV-XLHRuFElExbyaIEd4-1" parent="vV-XLHRuFElExbyaIEd4-0"/>
                <mxCell id="Ws-6RBMNiHoIzdHjLvVi-0" value="product" style="swimlane;fontStyle=0;childLayout=stackLayout;horizontal=1;startSize=30;horizontalStack=0;resizeParent=1;resizeParentMax=0;resizeLast=0;collapsible=1;marginBottom=0;" parent="vV-XLHRuFElExbyaIEd4-1" vertex="1">
                    <mxGeometry x="180" y="55" width="130" height="330" as="geometry"/>
                </mxCell>
                <mxCell id="Ws-6RBMNiHoIzdHjLvVi-8" value="product_id: int" style="text;strokeColor=#6c8ebf;fillColor=#dae8fc;align=left;verticalAlign=middle;spacingLeft=4;spacingRight=4;overflow=hidden;points=[[0,0.5],[1,0.5]];portConstraint=eastwest;rotatable=0;gradientColor=#7ea6e0;" parent="Ws-6RBMNiHoIzdHjLvVi-0" vertex="1">
                    <mxGeometry y="30" width="130" height="30" as="geometry"/>
                </mxCell>
                <mxCell id="Ws-6RBMNiHoIzdHjLvVi-1" value="Name: string" style="text;strokeColor=none;fillColor=none;align=left;verticalAlign=middle;spacingLeft=4;spacingRight=4;overflow=hidden;points=[[0,0.5],[1,0.5]];portConstraint=eastwest;rotatable=0;" parent="Ws-6RBMNiHoIzdHjLvVi-0" vertex="1">
                    <mxGeometry y="60" width="130" height="30" as="geometry"/>
                </mxCell>
                <mxCell id="Ws-6RBMNiHoIzdHjLvVi-2" value="description: string" style="text;strokeColor=none;fillColor=none;align=left;verticalAlign=middle;spacingLeft=4;spacingRight=4;overflow=hidden;points=[[0,0.5],[1,0.5]];portConstraint=eastwest;rotatable=0;" parent="Ws-6RBMNiHoIzdHjLvVi-0" vertex="1">
                    <mxGeometry y="90" width="130" height="30" as="geometry"/>
                </mxCell>
                <mxCell id="Ws-6RBMNiHoIzdHjLvVi-3" value="photo: string" style="text;strokeColor=none;fillColor=none;align=left;verticalAlign=middle;spacingLeft=4;spacingRight=4;overflow=hidden;points=[[0,0.5],[1,0.5]];portConstraint=eastwest;rotatable=0;" parent="Ws-6RBMNiHoIzdHjLvVi-0" vertex="1">
                    <mxGeometry y="120" width="130" height="30" as="geometry"/>
                </mxCell>
                <mxCell id="6U65oodYiKiufmBplWFb-4" value="start price: int" style="text;strokeColor=none;fillColor=none;align=left;verticalAlign=middle;spacingLeft=4;spacingRight=4;overflow=hidden;points=[[0,0.5],[1,0.5]];portConstraint=eastwest;rotatable=0;" parent="Ws-6RBMNiHoIzdHjLvVi-0" vertex="1">
                    <mxGeometry y="150" width="130" height="30" as="geometry"/>
                </mxCell>
                <mxCell id="6U65oodYiKiufmBplWFb-3" value="higest bid: int" style="text;strokeColor=none;fillColor=none;align=left;verticalAlign=middle;spacingLeft=4;spacingRight=4;overflow=hidden;points=[[0,0.5],[1,0.5]];portConstraint=eastwest;rotatable=0;" parent="Ws-6RBMNiHoIzdHjLvVi-0" vertex="1">
                    <mxGeometry y="180" width="130" height="30" as="geometry"/>
                </mxCell>
                <mxCell id="6U65oodYiKiufmBplWFb-5" value="remaining time: time" style="text;strokeColor=none;fillColor=none;align=left;verticalAlign=middle;spacingLeft=4;spacingRight=4;overflow=hidden;points=[[0,0.5],[1,0.5]];portConstraint=eastwest;rotatable=0;" parent="Ws-6RBMNiHoIzdHjLvVi-0" vertex="1">
                    <mxGeometry y="210" width="130" height="30" as="geometry"/>
                </mxCell>
                <mxCell id="Ws-6RBMNiHoIzdHjLvVi-7" value="location: string" style="text;strokeColor=none;fillColor=none;align=left;verticalAlign=middle;spacingLeft=4;spacingRight=4;overflow=hidden;points=[[0,0.5],[1,0.5]];portConstraint=eastwest;rotatable=0;" parent="Ws-6RBMNiHoIzdHjLvVi-0" vertex="1">
                    <mxGeometry y="240" width="130" height="30" as="geometry"/>
                </mxCell>
                <mxCell id="89AlTp24Q0HmpNDvKry6-0" value="set: string" style="text;strokeColor=none;fillColor=none;align=left;verticalAlign=middle;spacingLeft=4;spacingRight=4;overflow=hidden;points=[[0,0.5],[1,0.5]];portConstraint=eastwest;rotatable=0;" parent="Ws-6RBMNiHoIzdHjLvVi-0" vertex="1">
                    <mxGeometry y="270" width="130" height="30" as="geometry"/>
                </mxCell>
                <mxCell id="Ws-6RBMNiHoIzdHjLvVi-9" value="fk_transaction_id: int" style="text;strokeColor=none;fillColor=none;align=left;verticalAlign=middle;spacingLeft=4;spacingRight=4;overflow=hidden;points=[[0,0.5],[1,0.5]];portConstraint=eastwest;rotatable=0;" parent="Ws-6RBMNiHoIzdHjLvVi-0" vertex="1">
                    <mxGeometry y="300" width="130" height="30" as="geometry"/>
                </mxCell>
                <mxCell id="Ws-6RBMNiHoIzdHjLvVi-10" value="customer" style="swimlane;fontStyle=0;childLayout=stackLayout;horizontal=1;startSize=30;horizontalStack=0;resizeParent=1;resizeParentMax=0;resizeLast=0;collapsible=1;marginBottom=0;" parent="vV-XLHRuFElExbyaIEd4-1" vertex="1">
                    <mxGeometry x="600" y="55" width="117" height="330" as="geometry"/>
                </mxCell>
                <mxCell id="Ws-6RBMNiHoIzdHjLvVi-19" value="customer_id: int" style="text;strokeColor=#6c8ebf;fillColor=#dae8fc;align=left;verticalAlign=middle;spacingLeft=4;spacingRight=4;overflow=hidden;points=[[0,0.5],[1,0.5]];portConstraint=eastwest;rotatable=0;gradientColor=#7ea6e0;" parent="Ws-6RBMNiHoIzdHjLvVi-10" vertex="1">
                    <mxGeometry y="30" width="117" height="30" as="geometry"/>
                </mxCell>
                <mxCell id="Ws-6RBMNiHoIzdHjLvVi-11" value="lName: string" style="text;strokeColor=none;fillColor=none;align=left;verticalAlign=middle;spacingLeft=4;spacingRight=4;overflow=hidden;points=[[0,0.5],[1,0.5]];portConstraint=eastwest;rotatable=0;" parent="Ws-6RBMNiHoIzdHjLvVi-10" vertex="1">
                    <mxGeometry y="60" width="117" height="30" as="geometry"/>
                </mxCell>
                <mxCell id="Ws-6RBMNiHoIzdHjLvVi-12" value="fName: string" style="text;strokeColor=none;fillColor=none;align=left;verticalAlign=middle;spacingLeft=4;spacingRight=4;overflow=hidden;points=[[0,0.5],[1,0.5]];portConstraint=eastwest;rotatable=0;" parent="Ws-6RBMNiHoIzdHjLvVi-10" vertex="1">
                    <mxGeometry y="90" width="117" height="30" as="geometry"/>
                </mxCell>
                <mxCell id="Ws-6RBMNiHoIzdHjLvVi-13" value="age: int" style="text;strokeColor=none;fillColor=none;align=left;verticalAlign=middle;spacingLeft=4;spacingRight=4;overflow=hidden;points=[[0,0.5],[1,0.5]];portConstraint=eastwest;rotatable=0;" parent="Ws-6RBMNiHoIzdHjLvVi-10" vertex="1">
                    <mxGeometry y="120" width="117" height="30" as="geometry"/>
                </mxCell>
                <mxCell id="Ws-6RBMNiHoIzdHjLvVi-14" value="gender: string" style="text;strokeColor=none;fillColor=none;align=left;verticalAlign=middle;spacingLeft=4;spacingRight=4;overflow=hidden;points=[[0,0.5],[1,0.5]];portConstraint=eastwest;rotatable=0;" parent="Ws-6RBMNiHoIzdHjLvVi-10" vertex="1">
                    <mxGeometry y="150" width="117" height="30" as="geometry"/>
                </mxCell>
                <mxCell id="Ws-6RBMNiHoIzdHjLvVi-15" value="address: string" style="text;strokeColor=none;fillColor=none;align=left;verticalAlign=middle;spacingLeft=4;spacingRight=4;overflow=hidden;points=[[0,0.5],[1,0.5]];portConstraint=eastwest;rotatable=0;" parent="Ws-6RBMNiHoIzdHjLvVi-10" vertex="1">
                    <mxGeometry y="180" width="117" height="30" as="geometry"/>
                </mxCell>
                <mxCell id="Ws-6RBMNiHoIzdHjLvVi-16" value="ZIP: int" style="text;strokeColor=none;fillColor=none;align=left;verticalAlign=middle;spacingLeft=4;spacingRight=4;overflow=hidden;points=[[0,0.5],[1,0.5]];portConstraint=eastwest;rotatable=0;" parent="Ws-6RBMNiHoIzdHjLvVi-10" vertex="1">
                    <mxGeometry y="210" width="117" height="30" as="geometry"/>
                </mxCell>
                <mxCell id="Ws-6RBMNiHoIzdHjLvVi-17" value="email: string" style="text;strokeColor=none;fillColor=none;align=left;verticalAlign=middle;spacingLeft=4;spacingRight=4;overflow=hidden;points=[[0,0.5],[1,0.5]];portConstraint=eastwest;rotatable=0;" parent="Ws-6RBMNiHoIzdHjLvVi-10" vertex="1">
                    <mxGeometry y="240" width="117" height="30" as="geometry"/>
                </mxCell>
                <mxCell id="6U65oodYiKiufmBplWFb-6" value="regular: string" style="text;strokeColor=none;fillColor=none;align=left;verticalAlign=middle;spacingLeft=4;spacingRight=4;overflow=hidden;points=[[0,0.5],[1,0.5]];portConstraint=eastwest;rotatable=0;" parent="Ws-6RBMNiHoIzdHjLvVi-10" vertex="1">
                    <mxGeometry y="270" width="117" height="30" as="geometry"/>
                </mxCell>
                <mxCell id="Ws-6RBMNiHoIzdHjLvVi-18" value="password: string" style="text;strokeColor=none;fillColor=none;align=left;verticalAlign=middle;spacingLeft=4;spacingRight=4;overflow=hidden;points=[[0,0.5],[1,0.5]];portConstraint=eastwest;rotatable=0;" parent="Ws-6RBMNiHoIzdHjLvVi-10" vertex="1">
                    <mxGeometry y="300" width="117" height="30" as="geometry"/>
                </mxCell>
                <mxCell id="Ws-6RBMNiHoIzdHjLvVi-20" value="transaction" style="swimlane;fontStyle=0;childLayout=stackLayout;horizontal=1;startSize=30;horizontalStack=0;resizeParent=1;resizeParentMax=0;resizeLast=0;collapsible=1;marginBottom=0;" parent="vV-XLHRuFElExbyaIEd4-1" vertex="1">
                    <mxGeometry x="400" y="120" width="140" height="240" as="geometry"/>
                </mxCell>
                <mxCell id="Ws-6RBMNiHoIzdHjLvVi-23" value="transaction_id: int" style="text;strokeColor=#6c8ebf;fillColor=#dae8fc;align=left;verticalAlign=middle;spacingLeft=4;spacingRight=4;overflow=hidden;points=[[0,0.5],[1,0.5]];portConstraint=eastwest;rotatable=0;gradientColor=#7ea6e0;" parent="Ws-6RBMNiHoIzdHjLvVi-20" vertex="1">
                    <mxGeometry y="30" width="140" height="30" as="geometry"/>
                </mxCell>
                <mxCell id="Ws-6RBMNiHoIzdHjLvVi-21" value="date: date" style="text;strokeColor=none;fillColor=none;align=left;verticalAlign=middle;spacingLeft=4;spacingRight=4;overflow=hidden;points=[[0,0.5],[1,0.5]];portConstraint=eastwest;rotatable=0;" parent="Ws-6RBMNiHoIzdHjLvVi-20" vertex="1">
                    <mxGeometry y="60" width="140" height="30" as="geometry"/>
                </mxCell>
                <mxCell id="6U65oodYiKiufmBplWFb-1" value="bank: string" style="text;strokeColor=none;fillColor=none;align=left;verticalAlign=middle;spacingLeft=4;spacingRight=4;overflow=hidden;points=[[0,0.5],[1,0.5]];portConstraint=eastwest;rotatable=0;" parent="Ws-6RBMNiHoIzdHjLvVi-20" vertex="1">
                    <mxGeometry y="90" width="140" height="30" as="geometry"/>
                </mxCell>
                <mxCell id="89AlTp24Q0HmpNDvKry6-7" value="aproved: string" style="text;strokeColor=none;fillColor=none;align=left;verticalAlign=middle;spacingLeft=4;spacingRight=4;overflow=hidden;points=[[0,0.5],[1,0.5]];portConstraint=eastwest;rotatable=0;" parent="Ws-6RBMNiHoIzdHjLvVi-20" vertex="1">
                    <mxGeometry y="120" width="140" height="30" as="geometry"/>
                </mxCell>
                <mxCell id="6U65oodYiKiufmBplWFb-2" value="bank id: int" style="text;strokeColor=none;fillColor=none;align=left;verticalAlign=middle;spacingLeft=4;spacingRight=4;overflow=hidden;points=[[0,0.5],[1,0.5]];portConstraint=eastwest;rotatable=0;" parent="Ws-6RBMNiHoIzdHjLvVi-20" vertex="1">
                    <mxGeometry y="150" width="140" height="30" as="geometry"/>
                </mxCell>
                <mxCell id="89AlTp24Q0HmpNDvKry6-3" value="fk_customer_id: int" style="text;strokeColor=none;fillColor=none;align=left;verticalAlign=middle;spacingLeft=4;spacingRight=4;overflow=hidden;points=[[0,0.5],[1,0.5]];portConstraint=eastwest;rotatable=0;" parent="Ws-6RBMNiHoIzdHjLvVi-20" vertex="1">
                    <mxGeometry y="180" width="140" height="30" as="geometry"/>
                </mxCell>
                <mxCell id="89AlTp24Q0HmpNDvKry6-4" value="fk_product_id: int" style="text;strokeColor=none;fillColor=none;align=left;verticalAlign=middle;spacingLeft=4;spacingRight=4;overflow=hidden;points=[[0,0.5],[1,0.5]];portConstraint=eastwest;rotatable=0;" parent="Ws-6RBMNiHoIzdHjLvVi-20" vertex="1">
                    <mxGeometry y="210" width="140" height="30" as="geometry"/>
                </mxCell>
                <mxCell id="Ws-6RBMNiHoIzdHjLvVi-24" value="set" style="swimlane;fontStyle=0;childLayout=stackLayout;horizontal=1;startSize=30;horizontalStack=0;resizeParent=1;resizeParentMax=0;resizeLast=0;collapsible=1;marginBottom=0;" parent="vV-XLHRuFElExbyaIEd4-1" vertex="1">
                    <mxGeometry x="10" y="55" width="130" height="120" as="geometry"/>
                </mxCell>
                <mxCell id="Ws-6RBMNiHoIzdHjLvVi-30" value="set_id: int" style="text;strokeColor=#6c8ebf;fillColor=#dae8fc;align=left;verticalAlign=middle;spacingLeft=4;spacingRight=4;overflow=hidden;points=[[0,0.5],[1,0.5]];portConstraint=eastwest;rotatable=0;gradientColor=#7ea6e0;" parent="Ws-6RBMNiHoIzdHjLvVi-24" vertex="1">
                    <mxGeometry y="30" width="130" height="30" as="geometry"/>
                </mxCell>
                <mxCell id="Ws-6RBMNiHoIzdHjLvVi-25" value="description: string" style="text;strokeColor=none;fillColor=none;align=left;verticalAlign=middle;spacingLeft=4;spacingRight=4;overflow=hidden;points=[[0,0.5],[1,0.5]];portConstraint=eastwest;rotatable=0;" parent="Ws-6RBMNiHoIzdHjLvVi-24" vertex="1">
                    <mxGeometry y="60" width="130" height="30" as="geometry"/>
                </mxCell>
                <mxCell id="Ws-6RBMNiHoIzdHjLvVi-26" value="catalog nummer: int" style="text;strokeColor=none;fillColor=none;align=left;verticalAlign=middle;spacingLeft=4;spacingRight=4;overflow=hidden;points=[[0,0.5],[1,0.5]];portConstraint=eastwest;rotatable=0;" parent="Ws-6RBMNiHoIzdHjLvVi-24" vertex="1">
                    <mxGeometry y="90" width="130" height="30" as="geometry"/>
                </mxCell>
                <mxCell id="89AlTp24Q0HmpNDvKry6-1" style="edgeStyle=orthogonalEdgeStyle;html=1;exitX=1;exitY=0.5;exitDx=0;exitDy=0;entryX=0;entryY=0.5;entryDx=0;entryDy=0;endArrow=ERone;endFill=0;startArrow=ERone;startFill=0;" parent="vV-XLHRuFElExbyaIEd4-1" source="Ws-6RBMNiHoIzdHjLvVi-30" target="89AlTp24Q0HmpNDvKry6-0" edge="1">
                    <mxGeometry relative="1" as="geometry"/>
                </mxCell>
                <mxCell id="89AlTp24Q0HmpNDvKry6-2" style="edgeStyle=orthogonalEdgeStyle;html=1;exitX=0;exitY=0.5;exitDx=0;exitDy=0;entryX=1;entryY=0.5;entryDx=0;entryDy=0;endArrow=ERone;endFill=0;startArrow=ERone;startFill=0;" parent="vV-XLHRuFElExbyaIEd4-1" source="Ws-6RBMNiHoIzdHjLvVi-23" target="Ws-6RBMNiHoIzdHjLvVi-9" edge="1">
                    <mxGeometry relative="1" as="geometry">
                        <Array as="points">
                            <mxPoint x="400" y="140"/>
                            <mxPoint x="330" y="140"/>
                            <mxPoint x="330" y="370"/>
                        </Array>
                    </mxGeometry>
                </mxCell>
                <mxCell id="8YVoXc8HTW7fQoo8Mw6_-2" style="edgeStyle=orthogonalEdgeStyle;html=1;exitX=0;exitY=0.5;exitDx=0;exitDy=0;entryX=1;entryY=0.5;entryDx=0;entryDy=0;startArrow=ERone;startFill=0;endArrow=ERone;endFill=0;" edge="1" parent="vV-XLHRuFElExbyaIEd4-1" source="Ws-6RBMNiHoIzdHjLvVi-19" target="89AlTp24Q0HmpNDvKry6-3">
                    <mxGeometry relative="1" as="geometry"/>
                </mxCell>
                <mxCell id="8YVoXc8HTW7fQoo8Mw6_-3" style="edgeStyle=orthogonalEdgeStyle;html=1;exitX=0;exitY=0.5;exitDx=0;exitDy=0;entryX=1;entryY=0.5;entryDx=0;entryDy=0;startArrow=ERone;startFill=0;endArrow=ERone;endFill=0;" edge="1" parent="vV-XLHRuFElExbyaIEd4-1" source="89AlTp24Q0HmpNDvKry6-4" target="Ws-6RBMNiHoIzdHjLvVi-8">
                    <mxGeometry relative="1" as="geometry"/>
                </mxCell>
            </root>
        </mxGraphModel>
    </diagram>
</mxfile>